<svg width="252" height="89" viewBox="0 0 252 89" fill="none" xmlns="http://www.w3.org/2000/svg">
<path d="M65.5597 27.8112C66.7549 25.5358 68.4194 23.7815 70.5458 22.5484C72.6722 21.3153 75.0773 20.6987 77.761 20.6987C80.4447 20.6987 82.9524 21.3446 84.9762 22.6291C86.9927 23.921 88.4518 25.5651 89.3464 27.5689V21.1244H93.1007V50.4476H89.3464V43.9518C88.4152 45.9556 86.9413 47.6144 84.9176 48.9209C82.8938 50.2274 80.4887 50.8807 77.7023 50.8807C74.916 50.8807 72.6649 50.2568 70.5385 49.0017C68.412 47.7465 66.7475 45.9776 65.5523 43.6875C64.3571 41.3974 63.7559 38.7477 63.7559 35.7383C63.7559 32.7289 64.3571 30.0939 65.5523 27.8185L65.5597 27.8112ZM87.9092 29.5581C86.9413 27.7671 85.6288 26.3872 83.9643 25.4257C82.2998 24.4568 80.4667 23.9724 78.4649 23.9724C76.4631 23.9724 74.5274 24.4348 72.8849 25.367C71.2424 26.2991 69.9445 27.6497 68.9986 29.4186C68.0527 31.1949 67.5761 33.2941 67.5761 35.731C67.5761 38.1679 68.0527 40.2304 68.9986 42.0434C69.9445 43.849 71.2424 45.2289 72.8849 46.1758C74.5274 47.1226 76.3898 47.5997 78.4649 47.5997C80.54 47.5997 82.2998 47.1153 83.9643 46.1464C85.6288 45.1775 86.9413 43.805 87.9092 42.014C88.8771 40.2231 89.3537 38.1458 89.3537 35.7824C89.3537 33.4189 88.8698 31.3417 87.9092 29.5507V29.5581Z" fill="white"/>
<path d="M103.549 48.5393C101.423 46.9832 100.228 44.8619 99.9785 42.1755H103.843C104.019 43.8197 104.796 45.1555 106.175 46.1758C107.553 47.1961 109.401 47.7099 111.725 47.7099C113.764 47.7099 115.362 47.2254 116.528 46.2565C117.687 45.2877 118.273 44.0912 118.273 42.66C118.273 41.6544 117.951 40.8323 117.305 40.1864C116.66 39.5405 115.846 39.034 114.864 38.6523C113.881 38.278 112.546 37.8743 110.867 37.4412C108.682 36.8687 106.915 36.2962 105.559 35.7237C104.202 35.1512 103.044 34.2997 102.098 33.1694C101.152 32.039 100.675 30.527 100.675 28.6333C100.675 27.202 101.108 25.8734 101.966 24.655C102.824 23.4366 104.041 22.475 105.61 21.7557C107.186 21.0437 108.968 20.6841 110.977 20.6841C114.123 20.6841 116.667 21.4841 118.596 23.0769C120.524 24.6697 121.565 26.8643 121.705 29.6535H117.951C117.841 27.936 117.173 26.5487 115.941 25.4918C114.71 24.4348 113.016 23.9063 110.875 23.9063C108.976 23.9063 107.443 24.3541 106.262 25.2495C105.082 26.145 104.488 27.2534 104.488 28.5819C104.488 29.7269 104.84 30.6664 105.537 31.4004C106.233 32.1344 107.098 32.707 108.14 33.118C109.174 33.529 110.574 33.9841 112.327 34.4906C114.438 35.0631 116.117 35.6209 117.371 36.1567C118.625 36.6926 119.696 37.4853 120.59 38.5202C121.485 39.5625 121.947 40.9351 121.983 42.6526C121.983 44.2307 121.551 45.6326 120.693 46.8658C119.835 48.0989 118.632 49.0751 117.1 49.7944C115.56 50.5137 113.793 50.866 111.791 50.866C108.426 50.866 105.683 50.088 103.557 48.5319L103.549 48.5393Z" fill="white"/>
<path d="M155.458 37.2357H131.15C131.26 39.4524 131.796 41.3534 132.763 42.9315C133.731 44.5096 135 45.6987 136.569 46.5061C138.138 47.3135 139.861 47.7172 141.717 47.7172C144.151 47.7172 146.197 47.13 147.861 45.9409C149.526 44.7592 150.626 43.1664 151.161 41.1626H155.128C154.409 44.0252 152.884 46.3666 150.538 48.1722C148.191 49.9779 145.251 50.8807 141.709 50.8807C138.952 50.8807 136.488 50.2641 134.303 49.031C132.118 47.7979 130.417 46.0437 129.178 43.7683C127.946 41.4929 127.33 38.8358 127.33 35.7897C127.33 32.7436 127.939 30.0792 129.156 27.7891C130.373 25.4991 132.067 23.7448 134.252 22.5264C136.43 21.3079 138.923 20.6987 141.709 20.6987C144.496 20.6987 146.937 21.3079 149.034 22.5264C151.124 23.7448 152.737 25.3816 153.867 27.4442C154.996 29.5067 155.553 31.7894 155.553 34.2924C155.553 35.5842 155.516 36.5677 155.443 37.243L155.458 37.2357ZM150.442 28.5892C149.533 27.0478 148.286 25.8881 146.717 25.0954C145.141 24.31 143.425 23.9136 141.57 23.9136C138.784 23.9136 136.4 24.8091 134.435 26.6001C132.47 28.391 131.378 30.916 131.165 34.1749H151.769C151.806 31.9949 151.366 30.1306 150.457 28.5892H150.442Z" fill="white"/>
<path d="M188.829 37.2357H164.521C164.631 39.4524 165.167 41.3534 166.135 42.9315C167.102 44.5096 168.371 45.6987 169.94 46.5061C171.509 47.3135 173.232 47.7172 175.088 47.7172C177.522 47.7172 179.568 47.13 181.232 45.9409C182.897 44.7592 183.997 43.1664 184.532 41.1626H188.499C187.78 44.0252 186.255 46.3666 183.909 48.1722C181.562 49.9779 178.622 50.8807 175.08 50.8807C172.323 50.8807 169.86 50.2641 167.674 49.031C165.489 47.7979 163.788 46.0437 162.549 43.7683C161.317 41.4929 160.701 38.8358 160.701 35.7897C160.701 32.7436 161.31 30.0792 162.527 27.7891C163.744 25.4991 165.438 23.7448 167.623 22.5264C169.801 21.3079 172.294 20.6987 175.08 20.6987C177.867 20.6987 180.308 21.3079 182.405 22.5264C184.495 23.7448 186.108 25.3816 187.238 27.4442C188.367 29.5067 188.924 31.7894 188.924 34.2924C188.924 35.5842 188.887 36.5677 188.814 37.243L188.829 37.2357ZM183.813 28.5892C182.904 27.0478 181.658 25.8881 180.088 25.0954C178.512 24.31 176.796 23.9136 174.941 23.9136C172.155 23.9136 169.772 24.8091 167.806 26.6001C165.841 28.391 164.749 30.916 164.536 34.1749H185.141C185.177 31.9949 184.737 30.1306 183.828 28.5892H183.813Z" fill="white"/>
<path d="M222.198 37.2357H197.891C198.001 39.4524 198.536 41.3534 199.504 42.9315C200.472 44.5096 201.74 45.6987 203.309 46.5061C204.878 47.3135 206.602 47.7172 208.457 47.7172C210.891 47.7172 212.937 47.13 214.601 45.9409C216.266 44.7592 217.366 43.1664 217.901 41.1626H221.868C221.149 44.0252 219.624 46.3666 217.278 48.1722C214.931 49.9779 211.991 50.8807 208.449 50.8807C205.692 50.8807 203.229 50.2641 201.044 49.031C198.858 47.7979 197.157 46.0437 195.918 43.7683C194.686 41.4929 194.07 38.8358 194.07 35.7897C194.07 32.7436 194.679 30.0792 195.896 27.7891C197.113 25.4991 198.807 23.7448 200.992 22.5264C203.17 21.3079 205.663 20.6987 208.449 20.6987C211.236 20.6987 213.677 21.3079 215.775 22.5264C217.864 23.7448 219.478 25.3816 220.607 27.4442C221.736 29.5067 222.293 31.7894 222.293 34.2924C222.293 35.5842 222.257 36.5677 222.183 37.243L222.198 37.2357ZM217.182 28.5892C216.273 27.0478 215.027 25.8881 213.458 25.0954C211.881 24.31 210.165 23.9136 208.31 23.9136C205.524 23.9136 203.141 24.8091 201.176 26.6001C199.21 28.391 198.118 30.916 197.905 34.1749H218.51C218.546 31.9949 218.106 30.1306 217.197 28.5892H217.182Z" fill="white"/>
<path d="M231.018 48.5393C228.892 46.9832 227.697 44.8619 227.447 42.1755H231.312C231.487 43.8197 232.265 45.1555 233.643 46.1758C235.022 47.1961 236.87 47.7099 239.194 47.7099C241.232 47.7099 242.831 47.2254 243.997 46.2565C245.155 45.2877 245.742 44.0912 245.742 42.66C245.742 41.6544 245.419 40.8323 244.774 40.1864C244.129 39.5405 243.315 39.034 242.332 38.6523C241.35 38.278 240.015 37.8743 238.336 37.4412C236.151 36.8687 234.384 36.2962 233.027 35.7237C231.671 35.1512 230.512 34.2997 229.566 33.1694C228.62 32.039 228.144 30.527 228.144 28.6333C228.144 27.202 228.576 25.8734 229.434 24.655C230.292 23.4366 231.509 22.475 233.079 21.7557C234.655 21.0437 236.437 20.6841 238.446 20.6841C241.592 20.6841 244.136 21.4841 246.065 23.0769C247.993 24.6697 249.034 26.8643 249.174 29.6535H245.419C245.309 27.936 244.642 26.5487 243.41 25.4918C242.178 24.4348 240.485 23.9063 238.343 23.9063C236.444 23.9063 234.912 24.3541 233.731 25.2495C232.551 26.145 231.957 27.2534 231.957 28.5819C231.957 29.7269 232.309 30.6664 233.005 31.4004C233.702 32.1344 234.567 32.707 235.608 33.118C236.642 33.529 238.043 33.9841 239.795 34.4906C241.907 35.0631 243.586 35.6209 244.84 36.1567C246.094 36.6926 247.164 37.4853 248.059 38.5202C248.954 39.5625 249.416 40.9351 249.452 42.6526C249.452 44.2307 249.02 45.6326 248.162 46.8658C247.304 48.0989 246.101 49.0751 244.569 49.7944C243.029 50.5137 241.262 50.866 239.26 50.866C235.894 50.866 233.152 50.088 231.026 48.5319L231.018 48.5393Z" fill="white"/>
<path d="M67.5172 61.1196H69.2477L72.8333 70.4267H71.0662L70.201 68.144H66.564L65.6988 70.4267H63.9316L67.5172 61.1196ZM69.6877 66.6246L68.3752 63.05L67.0553 66.6246H69.6877Z" fill="white"/>
<path d="M79.0239 64.1585V65.7292C78.4593 65.2742 77.77 64.9952 77.0221 64.9952C76.2742 64.9952 75.9515 65.2595 75.9515 65.6265C75.9515 66.0302 76.3548 66.2284 77.1834 66.4486C78.2686 66.7348 79.4125 67.1165 79.4125 68.467C79.4125 69.8176 78.4006 70.5736 76.7434 70.5736C75.8269 70.5736 74.991 70.3241 74.3897 69.891V68.2028C75.0203 68.8047 75.7242 69.1717 76.6408 69.1717C77.4254 69.1717 77.8287 68.8854 77.8287 68.4744C77.8287 68.0267 77.3154 67.8725 76.4281 67.5936C75.3943 67.278 74.3457 66.8596 74.3457 65.6558C74.3457 64.4521 75.3649 63.5713 76.9634 63.5713C77.7333 63.5713 78.5326 63.7915 79.0312 64.1511L79.0239 64.1585Z" fill="white"/>
<path d="M86.0551 64.1585V65.7292C85.4905 65.2742 84.8012 64.9952 84.0533 64.9952C83.3054 64.9952 82.9828 65.2595 82.9828 65.6265C82.9828 66.0302 83.3861 66.2284 84.2146 66.4486C85.2999 66.7348 86.4437 67.1165 86.4437 68.467C86.4437 69.8176 85.4318 70.5736 83.7747 70.5736C82.8581 70.5736 82.0222 70.3241 81.4209 69.891V68.2028C82.0515 68.8047 82.7555 69.1717 83.672 69.1717C84.4566 69.1717 84.8599 68.8854 84.8599 68.4744C84.8599 68.0267 84.3466 67.8725 83.4594 67.5936C82.4255 67.278 81.377 66.8596 81.377 65.6558C81.377 64.4521 82.3962 63.5713 83.9947 63.5713C84.7646 63.5713 85.5638 63.7915 86.0624 64.1511L86.0551 64.1585Z" fill="white"/>
<path d="M95.3293 67.0803C95.3293 69.0621 93.8481 70.5814 91.8097 70.5814C89.7712 70.5814 88.2754 69.0621 88.2754 67.0803C88.2754 65.0985 89.7566 63.5791 91.8097 63.5791C93.8628 63.5791 95.3293 65.0985 95.3293 67.0803ZM89.9912 67.0803C89.9912 68.1813 90.7538 69.018 91.8097 69.018C92.8656 69.018 93.6135 68.1813 93.6135 67.0803C93.6135 65.9793 92.8509 65.1425 91.8097 65.1425C90.7685 65.1425 89.9912 65.9793 89.9912 67.0803Z" fill="white"/>
<path d="M102.537 65.5976C102.09 65.282 101.452 65.1132 100.924 65.1132C99.7358 65.1132 98.9219 65.9279 98.9219 67.0949C98.9219 68.1813 99.6845 69.0474 100.924 69.0474C101.503 69.0474 102.112 68.8932 102.544 68.5483V70.1631C102.06 70.464 101.327 70.5814 100.711 70.5814C98.6799 70.5814 97.1914 69.0767 97.1914 67.0949C97.1914 65.1132 98.6579 63.5791 100.726 63.5791C101.342 63.5791 102.038 63.7259 102.529 63.9975V65.5976H102.537Z" fill="white"/>
<path d="M106.842 61.7955C106.842 62.346 106.409 62.7644 105.874 62.7644C105.339 62.7644 104.877 62.346 104.877 61.7955C104.877 61.245 105.324 60.8267 105.874 60.8267C106.424 60.8267 106.842 61.245 106.842 61.7955ZM105.009 63.7333H106.71V70.4127H105.009V63.7333Z" fill="white"/>
<path d="M111.888 63.5786C113.59 63.5786 114.821 64.5108 114.821 66.199V70.4195H113.238V69.4873C112.82 70.1699 112.101 70.5736 111.221 70.5736C109.967 70.5736 109.051 69.7736 109.051 68.6726C109.051 67.5055 109.916 66.8376 111.471 66.6027L113.157 66.3531V66.1696C113.157 65.4723 112.607 65.0686 111.756 65.0686C110.906 65.0686 110.055 65.4503 109.557 65.8173V64.2172C110.121 63.8502 110.987 63.5713 111.888 63.5713V63.5786ZM113.172 67.7037V67.4541L111.822 67.623C111.089 67.711 110.671 68.0193 110.671 68.5038C110.671 68.9588 111.053 69.2524 111.603 69.2524C112.468 69.2524 113.172 68.5478 113.172 67.7037Z" fill="white"/>
<path d="M121.281 70.3166C121.002 70.4708 120.584 70.5809 120.034 70.5809C118.663 70.5809 117.805 69.7661 117.805 68.3275V65.1053H116.859V63.74H117.857V62.2207L119.506 61.7876V63.74H121.12V65.1053H119.506V68.0926C119.506 68.7752 119.858 69.0615 120.489 69.0615C120.672 69.0615 121.002 69.0101 121.274 68.8487V70.3166H121.281Z" fill="white"/>
<path d="M125.35 61.7955C125.35 62.346 124.917 62.7644 124.382 62.7644C123.847 62.7644 123.385 62.346 123.385 61.7955C123.385 61.245 123.832 60.8267 124.382 60.8267C124.932 60.8267 125.35 61.245 125.35 61.7955ZM123.517 63.7333H125.218V70.4127H123.517V63.7333Z" fill="white"/>
<path d="M134.618 67.0803C134.618 69.0621 133.137 70.5814 131.099 70.5814C129.06 70.5814 127.564 69.0621 127.564 67.0803C127.564 65.0985 129.046 63.5791 131.099 63.5791C133.152 63.5791 134.618 65.0985 134.618 67.0803ZM129.28 67.0803C129.28 68.1813 130.043 69.018 131.099 69.018C132.155 69.018 132.903 68.1813 132.903 67.0803C132.903 65.9793 132.14 65.1425 131.099 65.1425C130.058 65.1425 129.28 65.9793 129.28 67.0803Z" fill="white"/>
<path d="M140.674 63.5791C142.221 63.5791 143.263 64.614 143.263 66.361V70.42H141.561V66.5665C141.561 65.5976 140.982 65.0985 140.227 65.0985C139.098 65.0985 138.68 66.104 138.68 66.9702V70.42H136.979V63.7406H138.614V64.6434C138.995 63.9975 139.662 63.5791 140.667 63.5791H140.674Z" fill="white"/>
<path d="M152.135 63.7403H153.602V65.1056H152.15V70.427H150.434V65.1056H149.547V63.7403H150.449V63.2706C150.449 61.8393 151.417 60.9658 152.92 60.9658C153.301 60.9658 153.653 61.0172 153.888 61.1346V62.5219C153.69 62.4412 153.44 62.3898 153.191 62.3898C152.627 62.3898 152.128 62.654 152.128 63.3073V63.7403H152.135Z" fill="white"/>
<path d="M162.152 67.0803C162.152 69.0621 160.67 70.5814 158.632 70.5814C156.593 70.5814 155.098 69.0621 155.098 67.0803C155.098 65.0985 156.579 63.5791 158.632 63.5791C160.685 63.5791 162.152 65.0985 162.152 67.0803ZM156.813 67.0803C156.813 68.1813 157.576 69.018 158.632 69.018C159.688 69.018 160.436 68.1813 160.436 67.0803C160.436 65.9793 159.673 65.1425 158.632 65.1425C157.591 65.1425 156.813 65.9793 156.813 67.0803Z" fill="white"/>
<path d="M166.206 64.893C166.543 64.0782 167.203 63.5791 168.09 63.5791C168.244 63.5791 168.428 63.6085 168.508 63.6305V65.282C168.457 65.2673 168.288 65.2453 168.142 65.2453C166.925 65.2453 166.221 66.0967 166.221 67.4473V70.42H164.52V63.7406H166.206V64.893Z" fill="white"/>
<path d="M179.677 61.575V63.2926C179.039 62.8375 178.144 62.5439 177.36 62.5439C176.494 62.5439 175.857 62.8962 175.857 63.5642C175.857 64.1807 176.392 64.4817 177.477 64.9294C178.812 65.4652 180.197 66.0451 180.197 67.748C180.197 69.4508 178.848 70.5665 176.817 70.5665C175.703 70.5665 174.698 70.2362 174.053 69.7811V67.9461C174.735 68.5333 175.717 68.9957 176.707 68.9957C177.653 68.9957 178.357 68.548 178.357 67.8067C178.357 67.1094 177.675 66.7938 176.509 66.3093C175.373 65.8396 174.06 65.245 174.06 63.6523C174.06 62.0595 175.343 60.9658 177.279 60.9658C178.21 60.9658 179.046 61.2154 179.662 61.5824L179.677 61.575Z" fill="white"/>
<path d="M182.529 61.1201H184.23V68.2986C184.23 68.7684 184.362 69.0693 184.832 69.0693C184.964 69.0693 185.11 69.04 185.264 68.9886V70.4419C185.044 70.53 184.78 70.574 184.48 70.574C183.395 70.574 182.529 70.0382 182.529 68.6069V61.1128V61.1201Z" fill="white"/>
<path d="M189.84 63.5786C191.541 63.5786 192.773 64.5108 192.773 66.199V70.4195H191.189V69.4873C190.771 70.1699 190.052 70.5736 189.172 70.5736C187.919 70.5736 187.002 69.7736 187.002 68.6726C187.002 67.5055 187.867 66.8376 189.422 66.6027L191.108 66.3531V66.1696C191.108 65.4723 190.558 65.0686 189.708 65.0686C188.857 65.0686 188.007 65.4503 187.508 65.8173V64.2172C188.073 63.8502 188.938 63.5713 189.84 63.5713V63.5786ZM191.123 67.7037V67.4541L189.774 67.623C189.04 67.711 188.622 68.0193 188.622 68.5038C188.622 68.9588 189.004 69.2524 189.554 69.2524C190.419 69.2524 191.123 68.5478 191.123 67.7037Z" fill="white"/>
<path d="M197.193 70.4201L194.51 63.7407H196.277L197.978 68.3429L199.694 63.7407H201.461L198.777 70.4201H197.193Z" fill="white"/>
<path d="M205.215 61.7955C205.215 62.346 204.782 62.7644 204.247 62.7644C203.712 62.7644 203.25 62.346 203.25 61.7955C203.25 61.245 203.697 60.8267 204.247 60.8267C204.797 60.8267 205.215 61.245 205.215 61.7955ZM203.382 63.7333H205.083V70.4127H203.382V63.7333Z" fill="white"/>
<path d="M212.769 65.5976C212.322 65.282 211.684 65.1132 211.156 65.1132C209.968 65.1132 209.154 65.9279 209.154 67.0949C209.154 68.1813 209.917 69.0474 211.156 69.0474C211.735 69.0474 212.344 68.8932 212.777 68.5483V70.1631C212.293 70.464 211.559 70.5814 210.943 70.5814C208.912 70.5814 207.424 69.0767 207.424 67.0949C207.424 65.1132 208.89 63.5791 210.958 63.5791C211.574 63.5791 212.271 63.7259 212.762 63.9975V65.5976H212.769Z" fill="white"/>
<path d="M215.583 70.5226C215.217 70.4051 214.887 70.0675 214.887 69.6051C214.887 69.0399 215.305 68.6509 215.869 68.6509C216.434 68.6509 216.852 69.0472 216.852 69.6051C216.852 69.7519 216.815 69.8913 216.749 70.0528L215.818 72.152H215.019L215.583 70.5299V70.5226Z" fill="white"/>
<path d="M223.145 61.127H229.047V62.6463H224.86V64.9805H228.307V66.4852H224.86V68.8927H229.209V70.412H223.145V61.1196V61.127Z" fill="white"/>
<path d="M233.967 63.5786C235.668 63.5786 236.9 64.5108 236.9 66.199V70.4195H235.316V69.4873C234.898 70.1699 234.179 70.5736 233.299 70.5736C232.045 70.5736 231.129 69.7736 231.129 68.6726C231.129 67.5055 231.994 66.8376 233.549 66.6027L235.235 66.3531V66.1696C235.235 65.4723 234.685 65.0686 233.835 65.0686C232.984 65.0686 232.133 65.4503 231.635 65.8173V64.2172C232.199 63.8502 233.065 63.5713 233.967 63.5713V63.5786ZM235.25 67.7037V67.4541L233.901 67.623C233.167 67.711 232.749 68.0193 232.749 68.5038C232.749 68.9588 233.131 69.2524 233.681 69.2524C234.546 69.2524 235.25 68.5478 235.25 67.7037Z" fill="white"/>
<path d="M243.967 64.1585V65.7292C243.403 65.2742 242.713 64.9952 241.965 64.9952C241.218 64.9952 240.895 65.2595 240.895 65.6265C240.895 66.0302 241.298 66.2284 242.127 66.4486C243.212 66.7348 244.356 67.1165 244.356 68.467C244.356 69.8176 243.344 70.5736 241.687 70.5736C240.77 70.5736 239.934 70.3241 239.333 69.891V68.2028C239.964 68.8047 240.668 69.1717 241.584 69.1717C242.369 69.1717 242.772 68.8854 242.772 68.4744C242.772 68.0267 242.259 67.8725 241.371 67.5936C240.338 67.278 239.289 66.8596 239.289 65.6558C239.289 64.4521 240.308 63.5713 241.907 63.5713C242.677 63.5713 243.476 63.7915 243.975 64.1511L243.967 64.1585Z" fill="white"/>
<path d="M250.457 70.3166C250.179 70.4708 249.761 70.5809 249.211 70.5809C247.839 70.5809 246.989 69.7661 246.989 68.3275V65.1053H246.043V63.74H247.04V62.2207L248.69 61.7876V63.74H250.303V65.1053H248.69V68.0926C248.69 68.7752 249.042 69.0615 249.673 69.0615C249.856 69.0615 250.186 69.0101 250.457 68.8487V70.3166Z" fill="white"/>
<path d="M65.0469 76.541H70.9496V78.0604H66.7627V80.3945H70.209V81.8992H66.7627V84.3067H71.1109V85.8261H65.0469V76.5337V76.541Z" fill="white"/>
<path d="M75.1743 85.9956C73.6272 85.9956 72.5859 84.9607 72.5859 83.2211V79.1621H74.2871V83.0156C74.2871 83.9845 74.8664 84.4836 75.6216 84.4836C76.7508 84.4836 77.1761 83.4707 77.1761 82.6119V79.1621H78.8773V85.8415H77.2274V84.9387C76.8461 85.5772 76.1935 86.003 75.1743 86.003V85.9956Z" fill="white"/>
<path d="M82.8056 80.3065C83.1429 79.4918 83.8029 78.9927 84.6901 78.9927C84.8441 78.9927 85.0274 79.022 85.108 79.0441V80.6955C85.0567 80.6809 84.8881 80.6588 84.7414 80.6588C83.5242 80.6588 82.8203 81.5103 82.8203 82.8608V85.8335H81.1191V79.1542H82.8056V80.3065Z" fill="white"/>
<path d="M93.0285 82.4938C93.0285 84.4756 91.5473 85.995 89.5089 85.995C87.4704 85.995 85.9746 84.4756 85.9746 82.4938C85.9746 80.512 87.4558 78.9927 89.5089 78.9927C91.562 78.9927 93.0285 80.512 93.0285 82.4938ZM87.6904 82.4938C87.6904 83.5948 88.453 84.4316 89.5089 84.4316C90.5648 84.4316 91.3127 83.5948 91.3127 82.4938C91.3127 81.3928 90.5501 80.5561 89.5089 80.5561C88.4677 80.5561 87.6904 81.3928 87.6904 82.4938Z" fill="white"/>
<path d="M94.7949 79.1546H96.3788V80.0868C96.7454 79.4996 97.5666 79.0005 98.4979 79.0005C100.214 79.0005 101.629 80.4318 101.629 82.5017C101.629 84.5715 100.243 86.0028 98.4465 86.0028C97.6473 86.0028 96.8774 85.6358 96.4814 85.1V88.4691H94.7949V79.1693V79.1546ZM98.1606 84.4908C99.1138 84.4908 99.9277 83.6907 99.9277 82.509C99.9277 81.3273 99.1138 80.5272 98.1606 80.5272C97.2073 80.5272 96.3934 81.3126 96.3934 82.509C96.3934 83.7054 97.1927 84.4908 98.1606 84.4908Z" fill="white"/>
<path d="M109.335 82.1489C109.335 82.3984 109.306 82.6994 109.284 82.8975H104.665C104.797 84.0646 105.728 84.5197 106.747 84.5197C107.568 84.5197 108.412 84.2187 108.895 83.815V85.4298C108.162 85.8849 107.326 85.995 106.527 85.995C104.379 85.995 102.912 84.6224 102.912 82.5085C102.912 80.5267 104.261 78.9927 106.263 78.9927C108.265 78.9927 109.343 80.4093 109.343 82.1489H109.335ZM104.672 81.7819H107.708C107.642 80.9671 107.077 80.4166 106.226 80.4166C105.376 80.4166 104.811 80.9524 104.672 81.7819Z" fill="white"/>
<path d="M113.428 78.9932C115.129 78.9932 116.361 79.9254 116.361 81.6136V85.834H114.777V84.9019C114.359 85.5845 113.64 85.9882 112.76 85.9882C111.506 85.9882 110.59 85.1881 110.59 84.0871C110.59 82.9201 111.455 82.2521 113.01 82.0172L114.696 81.7677V81.5842C114.696 80.8869 114.146 80.4832 113.296 80.4832C112.445 80.4832 111.594 80.8649 111.096 81.2319V79.6318C111.66 79.2648 112.526 78.9858 113.428 78.9858V78.9932ZM114.711 83.1182V82.8687L113.362 83.0375C112.628 83.1256 112.21 83.4339 112.21 83.9183C112.21 84.3734 112.592 84.667 113.142 84.667C114.007 84.667 114.711 83.9623 114.711 83.1182Z" fill="white"/>
<path d="M122.211 78.9927C123.758 78.9927 124.8 80.0276 124.8 81.7745V85.8335H123.098V81.98C123.098 81.0112 122.519 80.512 121.764 80.512C120.635 80.512 120.217 81.5176 120.217 82.3837V85.8335H118.516V79.1542H120.151V80.057C120.532 79.4111 121.199 78.9927 122.204 78.9927H122.211Z" fill="white"/>
<path d="M127.286 85.9366C126.92 85.8192 126.59 85.4816 126.59 85.0191C126.59 84.454 127.008 84.0649 127.572 84.0649C128.137 84.0649 128.555 84.4613 128.555 85.0191C128.555 85.1659 128.518 85.3054 128.452 85.4669L127.521 87.5661H126.722L127.286 85.944V85.9366Z" fill="white"/>
<path d="M140.043 84.1162L141.642 85.8338H139.64L139.009 85.1658C138.291 85.6796 137.396 85.9879 136.406 85.9879C134.558 85.9879 133.004 84.9823 133.004 83.4042C133.004 82.3399 133.7 81.5692 134.925 80.8059C134.258 80.0719 133.84 79.5214 133.84 78.6993C133.84 77.4809 134.91 76.3799 136.509 76.3799C138.107 76.3799 139.141 77.4662 139.141 78.6626C139.141 79.6315 138.555 80.2627 137.22 81.0848L138.973 82.9712C139.303 82.3399 139.442 81.5839 139.369 80.8059H140.901C141.033 82.039 140.703 83.2061 140.05 84.1089L140.043 84.1162ZM135.893 81.8335C135.145 82.2812 134.705 82.6849 134.69 83.2648C134.676 84.0795 135.57 84.4979 136.428 84.4979C137.029 84.4979 137.557 84.3438 137.975 84.0648L135.893 81.8335ZM137.572 78.6773C137.572 78.1929 137.125 77.7745 136.509 77.7745C135.893 77.7745 135.438 78.1782 135.438 78.692C135.438 79.2058 135.768 79.5581 136.252 80.0646C137.117 79.5434 137.572 79.1838 137.572 78.6773Z" fill="white"/>
<path d="M146.299 76.541H152.202V78.0604H148.015V80.3945H151.461V81.8992H148.015V84.3067H152.363V85.8261H146.299V76.5337V76.541Z" fill="white"/>
<path d="M156.432 85.9956C154.885 85.9956 153.844 84.9607 153.844 83.2211V79.1621H155.545V83.0156C155.545 83.9845 156.124 84.4836 156.879 84.4836C158.009 84.4836 158.434 83.4707 158.434 82.6119V79.1621H160.135V85.8415H158.485V84.9387C158.104 85.5772 157.451 86.003 156.432 86.003V85.9956Z" fill="white"/>
<path d="M164.058 80.3065C164.395 79.4918 165.055 78.9927 165.942 78.9927C166.096 78.9927 166.279 79.022 166.36 79.0441V80.6955C166.309 80.6809 166.14 80.6588 165.993 80.6588C164.776 80.6588 164.072 81.5103 164.072 82.8608V85.8335H162.371V79.1542H164.058V80.3065Z" fill="white"/>
<path d="M170.107 78.9932C171.808 78.9932 173.04 79.9254 173.04 81.6136V85.834H171.456V84.9019C171.038 85.5845 170.32 85.9882 169.44 85.9882C168.186 85.9882 167.27 85.1881 167.27 84.0871C167.27 82.9201 168.135 82.2521 169.689 82.0172L171.376 81.7677V81.5842C171.376 80.8869 170.826 80.4832 169.975 80.4832C169.125 80.4832 168.274 80.8649 167.775 81.2319V79.6318C168.34 79.2648 169.205 78.9858 170.107 78.9858V78.9932ZM171.39 83.1182V82.8687L170.041 83.0375C169.308 83.1256 168.89 83.4339 168.89 83.9183C168.89 84.3734 169.271 84.667 169.821 84.667C170.687 84.667 171.39 83.9623 171.39 83.1182Z" fill="white"/>
<path d="M179.5 79.573V81.1438C178.936 80.6887 178.247 80.4098 177.499 80.4098C176.751 80.4098 176.428 80.674 176.428 81.041C176.428 81.4447 176.831 81.6429 177.66 81.8631C178.745 82.1494 179.889 82.531 179.889 83.8816C179.889 85.2322 178.877 85.9882 177.22 85.9882C176.303 85.9882 175.468 85.7386 174.866 85.3056V83.6174C175.497 84.2192 176.201 84.5862 177.117 84.5862C177.902 84.5862 178.305 84.3 178.305 83.8889C178.305 83.4412 177.792 83.2871 176.905 83.0081C175.871 82.6925 174.822 82.2741 174.822 81.0704C174.822 79.8666 175.841 78.9858 177.44 78.9858C178.21 78.9858 179.009 79.206 179.508 79.5657L179.5 79.573Z" fill="white"/>
<path d="M183.453 77.2091C183.453 77.7596 183.021 78.178 182.486 78.178C181.95 78.178 181.488 77.7596 181.488 77.2091C181.488 76.6586 181.936 76.2402 182.486 76.2402C183.035 76.2402 183.453 76.6586 183.453 77.2091ZM181.62 79.1469H183.321V85.8262H181.62V79.1469Z" fill="white"/>
<path d="M187.888 78.9932C189.59 78.9932 190.821 79.9254 190.821 81.6136V85.834H189.238V84.9019C188.82 85.5845 188.101 85.9882 187.221 85.9882C185.967 85.9882 185.051 85.1881 185.051 84.0871C185.051 82.9201 185.916 82.2521 187.471 82.0172L189.157 81.7677V81.5842C189.157 80.8869 188.607 80.4832 187.756 80.4832C186.906 80.4832 186.055 80.8649 185.557 81.2319V79.6318C186.121 79.2648 186.987 78.9858 187.888 78.9858V78.9932ZM189.172 83.1182V82.8687L187.822 83.0375C187.089 83.1256 186.671 83.4339 186.671 83.9183C186.671 84.3734 187.053 84.667 187.603 84.667C188.468 84.667 189.172 83.9623 189.172 83.1182Z" fill="white"/>
<path d="M196.675 78.9927C198.222 78.9927 199.27 80.0276 199.27 81.7745V85.8335H197.569V81.98C197.569 81.0112 196.99 80.512 196.235 80.512C195.105 80.512 194.687 81.5176 194.687 82.3837V85.8335H192.986V79.1542H194.621V80.057C195.003 79.4111 195.67 78.9927 196.675 78.9927Z" fill="white"/>
<path d="M210.194 76.9891V78.7067C209.549 78.2516 208.662 77.958 207.877 77.958C207.012 77.958 206.374 78.3103 206.374 78.9782C206.374 79.5948 206.909 79.8957 207.995 80.3435C209.329 80.8793 210.715 81.4591 210.715 83.162C210.715 84.8649 209.366 85.9806 207.335 85.9806C206.22 85.9806 205.216 85.6503 204.57 85.1952V83.3602C205.252 83.9474 206.235 84.4098 207.225 84.4098C208.171 84.4098 208.875 83.9621 208.875 83.2207C208.875 82.5234 208.193 82.2078 207.027 81.7234C205.89 81.2536 204.578 80.6591 204.578 79.0663C204.578 77.4735 205.861 76.3799 207.797 76.3799C208.728 76.3799 209.564 76.6294 210.18 76.9964L210.194 76.9891Z" fill="white"/>
<path d="M216.17 85.7312C215.891 85.8853 215.473 85.9954 214.923 85.9954C213.552 85.9954 212.702 85.1807 212.702 83.7421V80.5198H211.756V79.1546H212.753V77.6352L214.403 77.2021V79.1546H216.016V80.5198H214.403V83.5072C214.403 84.1898 214.755 84.4761 215.385 84.4761C215.569 84.4761 215.899 84.4247 216.17 84.2632V85.7312Z" fill="white"/>
<path d="M220.291 85.9956C218.744 85.9956 217.695 84.9607 217.695 83.2211V79.1621H219.396V83.0156C219.396 83.9845 219.976 84.4836 220.731 84.4836C221.86 84.4836 222.285 83.4707 222.285 82.6119V79.1621H223.987V85.8415H222.337V84.9387C221.956 85.5772 221.303 86.003 220.284 86.003L220.291 85.9956Z" fill="white"/>
<path d="M228.894 85.9954C227.156 85.9954 225.756 84.5641 225.756 82.4942C225.756 80.4244 227.171 78.9931 228.872 78.9931C229.737 78.9931 230.551 79.4261 230.918 79.9766V76.5269H232.604V85.8339H231.021V84.9311C230.669 85.5477 229.789 85.9954 228.902 85.9954H228.894ZM230.999 82.5089C230.999 81.3199 230.185 80.5271 229.217 80.5271C228.249 80.5271 227.45 81.3272 227.45 82.5089C227.45 83.6907 228.264 84.4907 229.217 84.4907C230.17 84.4907 230.999 83.6907 230.999 82.5089Z" fill="white"/>
<path d="M236.68 77.2091C236.68 77.7596 236.247 78.178 235.712 78.178C235.177 78.178 234.715 77.7596 234.715 77.2091C234.715 76.6586 235.162 76.2402 235.712 76.2402C236.262 76.2402 236.68 76.6586 236.68 77.2091ZM234.847 79.1469H236.548V85.8262H234.847V79.1469Z" fill="white"/>
<path d="M244.73 82.1489C244.73 82.3984 244.701 82.6994 244.679 82.8975H240.059C240.191 84.0646 241.122 84.5197 242.142 84.5197C242.963 84.5197 243.806 84.2187 244.29 83.815V85.4298C243.557 85.8849 242.721 85.995 241.922 85.995C239.773 85.995 238.307 84.6224 238.307 82.5085C238.307 80.5267 239.656 78.9927 241.658 78.9927C243.659 78.9927 244.737 80.4093 244.737 82.1489H244.73ZM240.066 81.7819H243.102C243.036 80.9671 242.472 80.4166 241.621 80.4166C240.77 80.4166 240.206 80.9524 240.066 81.7819Z" fill="white"/>
<path d="M250.803 79.573V81.1438C250.239 80.6887 249.549 80.4098 248.801 80.4098C248.053 80.4098 247.731 80.674 247.731 81.041C247.731 81.4447 248.134 81.6429 248.963 81.8631C250.048 82.1494 251.192 82.531 251.192 83.8816C251.192 85.2322 250.18 85.9882 248.523 85.9882C247.606 85.9882 246.77 85.7386 246.169 85.3056V83.6174C246.8 84.2192 247.504 84.5862 248.42 84.5862C249.205 84.5862 249.608 84.3 249.608 83.8889C249.608 83.4412 249.095 83.2871 248.207 83.0081C247.174 82.6925 246.125 82.2741 246.125 81.0704C246.125 79.8666 247.144 78.9858 248.743 78.9858C249.513 78.9858 250.312 79.206 250.81 79.5657L250.803 79.573Z" fill="white"/>
<path d="M0 69.3634L43.2473 86.3481V9.22705L0 69.3634ZM35.7021 52.254H35.5115C29.9167 51.9677 24.6593 49.9345 20.3038 46.3746L20.1718 46.2645L22.1076 43.5781L22.2616 43.7029C26.0525 46.8517 30.6427 48.6647 35.5335 48.9363H35.7094V52.254H35.7021Z" fill="white"/>
<path d="M59.1746 12.6761C54.3865 4.74162 46.0274 0 36.8104 0C22.4166 0 10.6992 11.7293 10.6992 26.1376C10.6992 32.9198 13.2949 39.3569 18.0098 44.26L18.0318 44.2821L19.9969 41.5516C16.1253 37.3238 13.9915 31.8555 13.9915 26.1376C13.9915 13.5422 24.2277 3.30299 36.803 3.30299C44.9568 3.30299 52.5533 7.72165 56.6155 14.8414L56.7255 15.0396L59.2333 12.8083L59.1526 12.6761H59.1746Z" fill="white"/>
</svg>
