<?xml version="1.0" encoding="UTF-8" standalone="no"?>
<svg
   xmlns:dc="http://purl.org/dc/elements/1.1/"
   xmlns:cc="http://creativecommons.org/ns#"
   xmlns:rdf="http://www.w3.org/1999/02/22-rdf-syntax-ns#"
   xmlns:svg="http://www.w3.org/2000/svg"
   xmlns="http://www.w3.org/2000/svg"
   width="225.64462mm"
   height="136.51253mm"
   viewBox="0 0 225.64462 136.51253"
   version="1.1"
   id="svg55">
  <defs
     id="defs49" />
  <metadata
     id="metadata52">
    <rdf:RDF>
      <cc:Work
         rdf:about="">
        <dc:format>image/svg+xml</dc:format>
        <dc:type
           rdf:resource="http://purl.org/dc/dcmitype/StillImage" />
        <dc:title></dc:title>
      </cc:Work>
    </rdf:RDF>
  </metadata>
  <g
     id="layer1"
     transform="translate(9.7087171,-81.808598)">
    <path
       style="fill:#312783;fill-opacity:1;stroke-width:0.0846667"
       d="m 53.96578,218.27289 c -53.61383154,-0.049 -49.2324395,-0.006 -51.4695485,-0.50456 -7.429133,-1.65545 -11.602416,-6.95201 -12.116446,-15.37769 -0.17312,-2.83767 -0.06834,-104.983317 0.109007,-106.262457 1.162329,-8.38364 5.710832,-12.940619 14.116319,-14.142626 1.648712,-0.23577 195.3440185,-0.236032 197.0616685,-2.67e-4 8.80939,1.209181 13.59388,6.504374 14.18009,15.693693 0.12061,1.89085 0.11777,102.941127 -0.003,104.844057 -0.56596,8.92092 -5.17178,14.14464 -13.71147,15.55096 -1.50992,0.24865 -38.86333,0.29879 -148.16666,0.19889 z m 13.54666,-23.45124 c 11.55971,-0.68978 19.07185,-4.29761 23.86892,-11.46346 6.2768,-9.37625 4.17901,-20.89954 -4.90358,-26.93581 -1.8735,-1.24512 -3.4353,-1.96274 -7.32367,-3.36512 -3.04883,-1.09958 -3.93805,-1.3718 -13.462,-4.12112 -11.12532,-3.2116 -11.55491,-3.4052 -12.61097,-5.6833 -0.79138,-1.70716 0.16842,-3.93097 2.21402,-5.12977 1.23994,-0.72666 10.20074,-1.512 12.98883,-1.13837 3.31343,0.44403 5.74462,2.41968 6.88498,5.59493 0.8167,2.27407 1.67632,2.77344 3.87253,2.24964 0.48104,-0.11473 1.35086,-0.26743 1.93294,-0.33935 1.07797,-0.13318 11.59286,-1.87268 11.64695,-1.92678 0.0163,-0.0163 -0.15326,-0.6187 -0.37684,-1.33864 -2.32204,-7.47683 -5.5729,-11.70746 -10.87818,-14.15665 -11.08998,-5.11972 -23.32693,-5.16319 -34.30093,-0.12185 -7.30345,3.35513 -10.91624,9.27779 -10.90684,17.8802 0.009,8.32773 3.97514,14.09932 11.97716,17.42976 4.36786,1.81791 6.01718,2.3125 24.03335,7.20706 1.90902,0.51863 2.27909,0.64869 2.79535,0.98236 3.23033,2.08786 2.96422,7.02226 -0.49956,9.26296 -7.8117,5.05336 -18.20298,2.14873 -22.48986,-6.2865 -1.03245,-2.03153 -1.22963,-2.1007 -4.66788,-1.63754 -3.89755,0.52504 -13.438622,1.96874 -13.524829,2.04651 -0.04256,0.0384 0.108821,0.6297 0.349245,1.36424 2.960404,9.04456 8.506844,14.76605 16.955534,17.49068 5.22462,1.68489 11.1252,2.4522 16.42533,2.13592 z M 25.814111,159.21954 c 0,-33.44333 0,-33.44333 -8.593666,-33.44333 -8.5936665,0 -8.5936665,0 -8.6153255,33.35866 -0.01191,18.34726 -0.0035,33.40646 0.01866,33.4649 0.03205,0.0844 1.7999565,0.10181 8.6153255,0.0847 8.575002,-0.0216 8.575002,-0.0216 8.575002,-33.4649 z m 98.689979,24.21466 c 0.0941,-16.28181 0.48883,-32.70458 0.84463,-35.13666 0.5665,-3.8724 3.01288,-7.22288 6.55273,-8.97438 6.47211,-3.20239 12.37548,-1.79955 15.06818,3.58072 0.9273,1.85283 1.25137,3.35986 1.6605,7.72199 0.0598,0.63711 0.11455,7.70475 0.1585,20.447 0.037,10.71033 0.0964,19.94005 0.13217,20.5105 0.065,1.03716 0.065,1.03716 8.81598,1.03716 8.751,0 8.751,0 8.76756,-10.51983 0.0504,-32.02348 -0.0352,-36.81826 -0.74516,-41.7195 -1.05233,-7.26501 -4.97912,-12.40326 -11.38748,-14.90068 -7.19291,-2.80316 -14.24525,-2.6736 -20.6217,0.37885 -3.05289,1.46144 -5.49779,3.60721 -9.0269,7.05321 -2.35534,2.29988 -1.45765,1.30769 -1.4796,-2.93551 -0.022,-4.2432 -0.022,-4.2432 -8.14917,-4.2432 -8.12722,0 -8.12722,0 -8.12722,33.48606 0,33.48606 0,33.48606 8.74184,33.4645 8.74183,-0.0216 8.74183,-0.0216 8.79514,-9.25023 z m 73.14102,-24.21507 c 0,-33.48606 0,-33.48606 -8.5725,-33.46449 -8.5725,0.0216 -8.5725,0.0216 -8.59378,33.48606 -0.0213,33.4645 -0.0213,33.4645 8.5725,33.4645 8.59378,0 8.59378,0 8.59378,-33.48607 z m 0,-51.43499 c 0,-7.789737 0,-7.789737 -8.5725,-7.76817 -8.5725,0.0216 -8.5725,0.0216 -8.59411,7.78974 -0.0216,7.76816 -0.0216,7.76816 8.5725,7.76816 8.59411,0 8.59411,0 8.59411,-7.78973 z m -171.788666,-0.0419 c 0,-7.746997 0,-7.746997 -8.635999,-7.746997 -8.6359995,0 -8.6359995,0 -8.6359995,7.746997 0,7.747 0,7.747 8.6359995,7.747 8.635999,0 8.635999,0 8.635999,-7.747 z"
       id="path71" />
  </g>
</svg>
